<?xml version="1.0" encoding="utf-8" ?><svg xmlns="http://www.w3.org/2000/svg" xmlns:xlink="http://www.w3.org/1999/xlink" width="48" height="48"><path fill="#000" transform="matrix(1 0 0 1 8 4)" d="M20.7906 10.4189L17.1859 -0.3953Q17.0345 -0.8972 16.559 -1.118Q16.0971 -1.3659 15.6047 -1.1859Q15.3099 -1.0899 15.0971 -0.8645Q14.8812 -0.6421 14.7981 -0.3434L11.0354 12.826L-0.1038 13.7543Q-0.6273 13.7828 -0.9542 14.1926Q-1.3042 14.5829 -1.2457 15.1038Q-1.2186 15.4898 -0.971 15.7872Q-0.7312 16.0909 -0.3592 16.1973L8.4067 18.8271L4.8141 29.6047Q4.6341 30.0971 4.882 30.559Q5.1028 31.0345 5.6047 31.1859Q5.8642 31.2738 6.1364 31.2425Q6.4089 31.214 6.6431 31.0719L14.3912 26.423L12.7626 37.8232Q12.6735 38.3398 13 38.75Q13.3023 39.1783 13.8232 39.2374Q14.1812 39.2926 14.5102 39.1411Q14.8424 38.9969 15.0401 38.6934L22.6031 27.3488L35.8232 29.2374Q36.3398 29.3265 36.75 29Q37.1783 28.6977 37.2374 28.1768Q37.2873 27.8479 37.1622 27.5397Q37.0424 27.2295 36.7809 27.0239L27.5699 19.6552L33.118 8.559Q33.3659 8.0971 33.1859 7.6047Q33.0345 7.1028 32.559 6.882Q32.3369 6.7699 32.0886 6.7531Q31.8405 6.7346 31.6047 6.8141L20.7906 10.4189ZM16.0919 4.2285L18.8141 12.3953Q18.9655 12.8972 19.441 13.118Q19.9029 13.3659 20.3953 13.1859L29.5324 10.1402L24.882 19.441Q24.6754 19.8353 24.7791 20.2682Q24.8663 20.7047 25.2191 20.9761L31.6425 26.1148L22.1768 24.7626Q21.8188 24.7075 21.4898 24.8589Q21.1576 25.0031 20.9599 25.3066L16.0168 32.7214L17.2374 24.1768Q17.2684 23.9636 17.2253 23.7526Q17.1831 23.5413 17.0719 23.3569Q16.8152 22.8998 16.3032 22.7873Q15.7985 22.6456 15.3569 22.9281L8.2544 27.1896L11.1859 18.3953Q11.1888 18.3863 11.1917 18.3773Q11.1946 18.3683 11.1973 18.3592Q11.3623 17.8616 11.1006 17.4074Q10.8654 16.9388 10.3592 16.8027L6.6766 15.6979L12.1038 15.2457Q12.4944 15.2184 12.7936 14.9658Q13.0994 14.7213 13.2019 14.3434L16.0919 4.2285Z" fill-rule="evenodd"/></svg>