<?xml version="1.0" encoding="utf-8" ?><svg xmlns="http://www.w3.org/2000/svg" xmlns:xlink="http://www.w3.org/1999/xlink" width="48" height="48"><path fill="#FFF" transform="matrix(1 0 0 1 12 8)" d="M12 6Q12 3.5147 10.2426 1.7574Q8.4853 0 6 0Q3.5147 0 1.7574 1.7574Q0 3.5147 0 6Q0 8.4853 1.7574 10.2426Q3.5147 12 6 12Q8.4853 12 10.2426 10.2426Q12 8.4853 12 6ZM2.5 6Q2.5 2.5 6 2.5Q9.5 2.5 9.5 6Q9.5 9.5 6 9.5Q2.5 9.5 2.5 6Z" fill-rule="evenodd"/><path fill="#FFF" transform="matrix(1 0 0 1 24 8)" d="M12 6Q12 3.5147 10.2426 1.7574Q8.4853 0 6 0Q3.5147 0 1.7574 1.7574Q0 3.5147 0 6Q0 8.4853 1.7574 10.2426Q3.5147 12 6 12Q8.4853 12 10.2426 10.2426Q12 8.4853 12 6ZM2.5 6Q2.5 2.5 6 2.5Q9.5 2.5 9.5 6Q9.5 9.5 6 9.5Q2.5 9.5 2.5 6Z" fill-rule="evenodd"/><path fill="#FFF" transform="matrix(1 0 0 1 6 28)" d="M2.5183 2.0898Q-1.25 5.6364 -1.25 12Q-1.2651 12.524 -0.8839 12.8839Q-0.524 13.2651 0 13.25Q0.524 13.2651 0.8839 12.8839Q1.2651 12.524 1.25 12Q1.25 6.7166 4.2317 3.9102Q7.0582 1.25 12 1.25Q12.524 1.2651 12.8839 0.8839Q13.2651 0.524 13.25 0Q13.2651 -0.524 12.8839 -0.8839Q12.524 -1.2651 12 -1.25Q6.0668 -1.25 2.5183 2.0898Z" fill-rule="evenodd"/><path fill="#FFF" transform="matrix(1 0 0 1 30 28)" d="M7.7683 3.9102Q10.75 6.7166 10.75 12Q10.7349 12.524 11.1161 12.8839Q11.476 13.2651 12 13.25Q12.524 13.2651 12.8839 12.8839Q13.2651 12.524 13.25 12Q13.25 5.6364 9.4817 2.0898Q5.9332 -1.25 0 -1.25Q-0.524 -1.2651 -0.8839 -0.8839Q-1.2651 -0.524 -1.25 0Q-1.2651 0.524 -0.8839 0.8839Q-0.524 1.2651 0 1.25Q4.9418 1.25 7.7683 3.9102Z" fill-rule="evenodd"/></svg>