<?xml version="1.0" encoding="utf-8" ?><svg xmlns="http://www.w3.org/2000/svg" xmlns:xlink="http://www.w3.org/1999/xlink" width="48" height="48"><path fill="#FFF" transform="matrix(1 0 0 1 6 18)" d="M36 21L36 3Q36 1.7574 35.1213 0.8787Q34.2426 0 33 0L3 0Q1.7574 0 0.8787 0.8787Q0 1.7574 0 3L0 21Q0 22.2426 0.8787 23.1213Q1.7574 24 3 24L33 24Q34.2426 24 35.1213 23.1213Q36 22.2426 36 21ZM33 2.5Q33.5 2.5 33.5 3L33.5 21Q33.5 21.2071 33.3536 21.3536Q33.2071 21.5 33 21.5L3 21.5Q2.5 21.5 2.5 21L2.5 3Q2.5 2.5 3 2.5L33 2.5Z" fill-rule="evenodd"/><rect fill="#FFF" transform="matrix(1 0 0 1 6 18)" y="-1.25" width="36" height="2.5"/><rect fill="#FFF" transform="matrix(1 0 0 1 24 18)" x="-1.25" width="2.5" height="24"/><path fill="#FFF" transform="matrix(1 0 0 1 18 8)" d="M6 7.5704L1.0719 -0.6431Q0.8152 -1.1002 0.3032 -1.2127Q-0.2015 -1.3544 -0.6431 -1.0719Q-1.1002 -0.8152 -1.2127 -0.3032Q-1.3544 0.2015 -1.0719 0.6431L4.9281 10.6431Q5.1848 11.1002 5.6968 11.2127Q6.2015 11.3544 6.6431 11.0719Q6.7752 10.9928 6.8839 10.8839Q6.9928 10.7752 7.0719 10.6431L13.0719 0.6431Q13.3544 0.2015 13.2127 -0.3032Q13.1002 -0.8152 12.6431 -1.0719Q12.2015 -1.3544 11.6968 -1.2127Q11.1848 -1.1002 10.9281 -0.6431L6 7.5704Z" fill-rule="evenodd"/></svg>