<?xml version="1.0" encoding="utf-8" ?><svg xmlns="http://www.w3.org/2000/svg" xmlns:xlink="http://www.w3.org/1999/xlink" width="840" height="140"><rect fill="#9EFF00" fill-opacity="0.12" transform="matrix(1 0 0 1 26.25 10)" x="-0.5" width="1" height="120"/><path fill="#9EFF00" fill-opacity="0.15" transform="matrix(1 0 0 1 26.25 70)" d="M1.9886 -0.5L0 -0.5L0 0.5L1.9886 0.5L1.9886 -0.5ZM13.9204 -0.5L9.9432 -0.5L9.9432 0.5L13.9204 0.5L13.9204 -0.5ZM25.8523 -0.5L21.875 -0.5L21.875 0.5L25.8523 0.5L25.8523 -0.5ZM37.7841 -0.5L33.8068 -0.5L33.8068 0.5L37.7841 0.5L37.7841 -0.5ZM49.7159 -0.5L45.7386 -0.5L45.7386 0.5L49.7159 0.5L49.7159 -0.5ZM61.6477 -0.5L57.6704 -0.5L57.6704 0.5L61.6477 0.5L61.6477 -0.5ZM73.5795 -0.5L69.6023 -0.5L69.6023 0.5L73.5795 0.5L73.5795 -0.5ZM85.5114 -0.5L81.5341 -0.5L81.5341 0.5L85.5114 0.5L85.5114 -0.5ZM97.4432 -0.5L93.4659 -0.5L93.4659 0.5L97.4432 0.5L97.4432 -0.5ZM109.375 -0.5L105.3977 -0.5L105.3977 0.5L109.375 0.5L109.375 -0.5ZM121.3068 -0.5L117.3295 -0.5L117.3295 0.5L121.3068 0.5L121.3068 -0.5ZM133.2386 -0.5L129.2614 -0.5L129.2614 0.5L133.2386 0.5L133.2386 -0.5ZM145.1705 -0.5L141.1932 -0.5L141.1932 0.5L145.1705 0.5L145.1705 -0.5ZM157.1023 -0.5L153.125 -0.5L153.125 0.5L157.1023 0.5L157.1023 -0.5ZM169.0341 -0.5L165.0568 -0.5L165.0568 0.5L169.0341 0.5L169.0341 -0.5ZM180.9659 -0.5L176.9886 -0.5L176.9886 0.5L180.9659 0.5L180.9659 -0.5ZM192.8978 -0.5L188.9205 -0.5L188.9205 0.5L192.8978 0.5L192.8978 -0.5ZM204.8296 -0.5L200.8523 -0.5L200.8523 0.5L204.8296 0.5L204.8296 -0.5ZM216.7614 -0.5L212.7841 -0.5L212.7841 0.5L216.7614 0.5L216.7614 -0.5ZM228.6932 -0.5L224.7159 -0.5L224.7159 0.5L228.6932 0.5L228.6932 -0.5ZM240.6251 -0.5L236.6478 -0.5L236.6478 0.5L240.6251 0.5L240.6251 -0.5ZM252.5569 -0.5L248.5796 -0.5L248.5796 0.5L252.5569 0.5L252.5569 -0.5ZM264.4887 -0.5L260.5114 -0.5L260.5114 0.5L264.4887 0.5L264.4887 -0.5ZM276.4205 -0.5L272.4432 -0.5L272.4432 0.5L276.4205 0.5L276.4205 -0.5ZM288.3523 -0.5L284.3751 -0.5L284.3751 0.5L288.3523 0.5L288.3523 -0.5ZM300.2841 -0.5L296.3069 -0.5L296.3069 0.5L300.2841 0.5L300.2841 -0.5ZM312.216 -0.5L308.2387 -0.5L308.2387 0.5L312.216 0.5L312.216 -0.5ZM324.1478 -0.5L320.1705 -0.5L320.1705 0.5L324.1478 0.5L324.1478 -0.5ZM336.0796 -0.5L332.1024 -0.5L332.1024 0.5L336.0796 0.5L336.0796 -0.5ZM348.0114 -0.5L344.0342 -0.5L344.0342 0.5L348.0114 0.5L348.0114 -0.5ZM359.9433 -0.5L355.966 -0.5L355.966 0.5L359.9433 0.5L359.9433 -0.5ZM371.8751 -0.5L367.8978 -0.5L367.8978 0.5L371.8751 0.5L371.8751 -0.5ZM383.8069 -0.5L379.8297 -0.5L379.8297 0.5L383.8069 0.5L383.8069 -0.5ZM395.7387 -0.5L391.7615 -0.5L391.7615 0.5L395.7387 0.5L395.7387 -0.5ZM407.6706 -0.5L403.6933 -0.5L403.6933 0.5L407.6706 0.5L407.6706 -0.5ZM419.6024 -0.5L415.6251 -0.5L415.6251 0.5L419.6024 0.5L419.6024 -0.5ZM431.5342 -0.5L427.5569 -0.5L427.5569 0.5L431.5342 0.5L431.5342 -0.5ZM443.466 -0.5L439.4888 -0.5L439.4888 0.5L443.466 0.5L443.466 -0.5ZM455.3979 -0.5L451.4206 -0.5L451.4206 0.5L455.3979 0.5L455.3979 -0.5ZM467.3297 -0.5L463.3524 -0.5L463.3524 0.5L467.3297 0.5L467.3297 -0.5ZM479.2615 -0.5L475.2842 -0.5L475.2842 0.5L479.2615 0.5L479.2615 -0.5ZM491.1933 -0.5L487.2161 -0.5L487.2161 0.5L491.1933 0.5L491.1933 -0.5ZM503.1252 -0.5L499.1479 -0.5L499.1479 0.5L503.1252 0.5L503.1252 -0.5ZM515.057 -0.5L511.0797 -0.5L511.0797 0.5L515.057 0.5L515.057 -0.5ZM526.9888 -0.5L523.0115 -0.5L523.0115 0.5L526.9888 0.5L526.9888 -0.5ZM538.9207 -0.5L534.9434 -0.5L534.9434 0.5L538.9207 0.5L538.9207 -0.5ZM550.8525 -0.5L546.8752 -0.5L546.8752 0.5L550.8525 0.5L550.8525 -0.5ZM562.7843 -0.5L558.807 -0.5L558.807 0.5L562.7843 0.5L562.7843 -0.5ZM574.7161 -0.5L570.7388 -0.5L570.7388 0.5L574.7161 0.5L574.7161 -0.5ZM586.6479 -0.5L582.6707 -0.5L582.6707 0.5L586.6479 0.5L586.6479 -0.5ZM598.5798 -0.5L594.6025 -0.5L594.6025 0.5L598.5798 0.5L598.5798 -0.5ZM610.5116 -0.5L606.5343 -0.5L606.5343 0.5L610.5116 0.5L610.5116 -0.5ZM622.4434 -0.5L618.4661 -0.5L618.4661 0.5L622.4434 0.5L622.4434 -0.5ZM634.3752 -0.5L630.3979 -0.5L630.3979 0.5L634.3752 0.5L634.3752 -0.5ZM646.3071 -0.5L642.3298 -0.5L642.3298 0.5L646.3071 0.5L646.3071 -0.5ZM658.2389 -0.5L654.2616 -0.5L654.2616 0.5L658.2389 0.5L658.2389 -0.5ZM670.1707 -0.5L666.1934 -0.5L666.1934 0.5L670.1707 0.5L670.1707 -0.5ZM682.1025 -0.5L678.1252 -0.5L678.1252 0.5L682.1025 0.5L682.1025 -0.5ZM694.0344 -0.5L690.0571 -0.5L690.0571 0.5L694.0344 0.5L694.0344 -0.5ZM705.9662 -0.5L701.9889 -0.5L701.9889 0.5L705.9662 0.5L705.9662 -0.5ZM717.898 -0.5L713.9207 -0.5L713.9207 0.5L717.898 0.5L717.898 -0.5ZM729.8298 -0.5L725.8525 -0.5L725.8525 0.5L729.8298 0.5L729.8298 -0.5ZM741.7617 -0.5L737.7844 -0.5L737.7844 0.5L741.7617 0.5L741.7617 -0.5ZM753.6935 -0.5L749.7162 -0.5L749.7162 0.5L753.6935 0.5L753.6935 -0.5ZM765.6253 -0.5L761.648 -0.5L761.648 0.5L765.6253 0.5L765.6253 -0.5ZM777.5571 -0.5L773.5798 -0.5L773.5798 0.5L777.5571 0.5L777.5571 -0.5ZM787.5 -0.5L785.5117 -0.5L785.5117 0.5L787.5 0.5L787.5 -0.5Z" fill-rule="evenodd"/><path fill="#9EFF00" fill-opacity="0.1" transform="matrix(1 0 0 1 26.25 20)" d="M14.2047 89.4088Q6.8247 93 0 93Q-2.9345 92.9155 -4.9497 95.0503Q-7.0845 97.0655 -7 100Q-7.0845 102.9345 -4.9497 104.9497Q-2.9345 107.0845 0 107Q10.0503 107 20.3305 101.9974Q29.0225 97.7678 38.3788 89.6671Q45.9227 83.1356 55.0293 73.0508Q60.4043 67.0983 70.9849 54.5023Q81.4043 42.0984 86.6113 36.332Q95.1415 26.8855 102.035 20.9171Q110.0037 14.0178 117.0453 10.5912Q124.4253 7 131.25 7Q138.0747 7 145.4547 10.5912Q152.4963 14.0178 160.465 20.9171Q167.3586 26.8856 175.8887 36.332Q181.0953 42.0979 191.5151 54.5023Q202.0959 67.0985 207.4707 73.0508Q216.5773 83.1356 224.1212 89.6671Q233.4775 97.7678 242.1695 101.9974Q252.4498 107 262.5 107Q272.5502 107 282.8305 101.9974Q291.5226 97.7677 300.8788 89.6671Q308.4229 83.1354 317.5293 73.0508Q322.904 67.0987 333.4849 54.5023Q343.9041 42.0986 349.1113 36.332Q357.6413 26.8857 364.535 20.9171Q372.5037 14.0178 379.5453 10.5912Q386.9252 7 393.75 7Q400.5748 7 407.9547 10.5912Q414.9963 14.0178 422.965 20.9171Q429.8587 26.8857 438.3887 36.332Q443.5959 42.0986 454.0151 54.5023Q464.5961 67.0987 469.9707 73.0508Q479.0772 83.1354 486.6212 89.6671Q495.9774 97.7677 504.6695 101.9974Q514.9497 107 525 107Q535.0503 107 545.3305 101.9974Q554.0224 97.7678 563.3788 89.6671Q570.9227 83.1356 580.0293 73.0508Q585.405 67.0975 595.9849 54.5023Q606.4031 42.0997 611.6113 36.332Q620.1415 26.8856 627.035 20.9171Q635.0038 14.0177 642.0453 10.5912Q649.4252 7 656.25 7Q663.0748 7 670.4547 10.5912Q677.4962 14.0177 685.465 20.9171Q692.3586 26.8856 700.8887 36.332Q706.0969 42.0997 716.5151 54.5023Q727.095 67.0976 732.4707 73.0508Q741.5773 83.1356 749.1212 89.6671Q758.4775 97.7678 767.1695 101.9974Q777.4498 107 787.5 107Q790.4344 107.0845 792.4498 104.9497Q794.5845 102.9345 794.5 100Q794.5845 97.0655 792.4498 95.0503Q790.4344 92.9155 787.5 93Q780.6753 93 773.2953 89.4088Q766.2538 85.9823 758.285 79.0829Q751.3915 73.1145 742.8613 63.668Q737.6531 57.9003 727.2349 45.4977Q716.655 32.9024 711.2793 26.9493Q702.1726 16.8644 694.6288 10.3329Q685.2724 2.2322 676.5805 -1.9974Q666.3003 -7 656.25 -7Q646.1997 -7 635.9195 -1.9974Q627.2275 2.2322 617.8712 10.3329Q610.3274 16.8644 601.2207 26.9493Q595.845 32.9024 585.2651 45.4977Q574.8469 57.9003 569.6387 63.668Q561.1085 73.1145 554.215 79.0829Q546.2461 85.9823 539.2047 89.4088Q531.8247 93 525 93Q518.1752 93 510.7953 89.4088Q503.7538 85.9822 495.785 79.0829Q488.8913 73.1143 480.3613 63.668Q475.1541 57.9014 464.7349 45.4977Q454.154 32.9013 448.7793 26.9493Q439.6728 16.8645 432.1288 10.3329Q422.7726 2.2323 414.0805 -1.9974Q403.8002 -7 393.75 -7Q383.6997 -7 373.4195 -1.9974Q364.7274 2.2323 355.3712 10.3329Q347.8272 16.8645 338.7207 26.9493Q333.346 32.9013 322.7651 45.4977Q312.3459 57.9014 307.1387 63.668Q298.6087 73.1143 291.715 79.0829Q283.7463 85.9822 276.7047 89.4088Q269.3247 93 262.5 93Q255.6753 93 248.2953 89.4088Q241.2537 85.9822 233.285 79.0829Q226.3914 73.1144 217.8613 63.668Q212.6547 57.9021 202.235 45.4977Q191.6541 32.9015 186.2793 26.9493Q177.1727 16.8644 169.6288 10.3329Q160.2725 2.2322 151.5805 -1.9974Q141.3002 -7 131.25 -7Q121.1998 -7 110.9195 -1.9974Q102.2275 2.2322 92.8712 10.3329Q85.3273 16.8644 76.2207 26.9493Q70.8458 32.9015 60.2651 45.4977Q49.8457 57.9016 44.6387 63.668Q36.1086 73.1144 29.215 79.0829Q21.2462 85.9822 14.2047 89.4088Z" fill-rule="evenodd"/><path fill="#9EFF00" transform="matrix(1 0 0 1 26.25 20)" d="M16.7206 94.5791Q8.1495 98.75 0 98.75Q-0.524 98.7349 -0.8839 99.1161Q-1.2651 99.476 -1.25 100Q-1.2651 100.524 -0.8839 100.8839Q-0.524 101.2651 0 101.25Q8.7255 101.25 17.8145 96.8271Q25.8288 92.9272 34.6151 85.32Q41.8922 79.0195 50.7617 69.1971Q56.0672 63.3217 66.5821 50.804Q77.0686 38.3201 82.3438 32.4784Q91.1107 22.7697 98.2713 16.57Q106.8099 9.1773 114.5294 5.4209Q123.1005 1.25 131.25 1.25Q139.3994 1.25 147.9706 5.4209Q155.6898 9.1772 164.2287 16.57Q171.3895 22.7698 180.1562 32.4784Q185.4334 38.3225 195.9179 50.804Q206.4309 63.3196 211.7383 69.1971Q220.6079 79.0195 227.8849 85.32Q236.6714 92.9274 244.6855 96.8271Q253.7747 101.25 262.5 101.25Q271.2255 101.25 280.3145 96.8271Q288.3289 92.9272 297.1151 85.32Q304.3925 79.0192 313.2617 69.1971Q318.5688 63.3199 329.0821 50.804Q339.5664 38.3225 344.8438 32.4784Q353.6104 22.7702 360.7713 16.57Q369.3098 9.1773 377.0294 5.4209Q385.6006 1.25 393.75 1.25Q401.8994 1.25 410.4706 5.4209Q418.1902 9.1773 426.7287 16.57Q433.8899 22.7703 442.6562 32.4784Q447.9338 38.3227 458.4179 50.804Q468.9312 63.3199 474.2383 69.1971Q483.1074 79.0191 490.3849 85.32Q499.1709 92.9272 507.1855 96.8271Q516.2747 101.25 525 101.25Q533.7256 101.25 542.8145 96.8271Q550.8291 92.9269 559.6151 85.32Q566.8911 79.0203 575.7617 69.1971Q581.061 63.3288 591.5822 50.804Q602.0752 38.3127 607.3438 32.4784Q616.1118 22.7689 623.2713 16.57Q631.8096 9.1776 639.5294 5.4209Q648.1001 1.25 656.25 1.25Q664.3999 1.25 672.9706 5.4209Q680.6904 9.1775 689.2287 16.57Q696.3882 22.7689 705.1562 32.4784Q710.4248 38.3129 720.9178 50.804Q731.4395 63.3289 736.7383 69.1971Q745.6089 79.0203 752.8849 85.32Q761.6709 92.927 769.6855 96.8271Q778.7744 101.25 787.5 101.25Q788.024 101.2651 788.3839 100.8839Q788.7651 100.524 788.75 100Q788.7651 99.476 788.3839 99.1161Q788.024 98.7349 787.5 98.75Q779.3501 98.75 770.7794 94.5791Q763.0596 90.8224 754.5213 83.43Q747.3613 77.231 738.5938 67.5216Q733.3252 61.6871 722.8322 49.196Q712.3108 36.6711 707.0117 30.8029Q698.1411 20.9795 690.8651 14.68Q682.0791 7.073 674.0645 3.1729Q664.9758 -1.25 656.25 -1.25Q647.5244 -1.25 638.4355 3.1729Q630.4209 7.073 621.6349 14.68Q614.3589 20.9796 605.4883 30.8029Q600.189 36.671 589.6678 49.196Q579.1748 61.6871 573.9062 67.5216Q565.1384 77.231 557.9787 83.43Q549.4407 90.8224 541.7206 94.5791Q533.1497 98.75 525 98.75Q516.8503 98.75 508.2794 94.5791Q500.5596 90.8226 492.0213 83.43Q484.8604 77.2296 476.0938 67.5216Q470.8164 61.6772 460.3321 49.196Q449.8186 36.68 444.5117 30.8029Q435.6423 20.9807 428.3651 14.68Q419.5789 7.0728 411.5645 3.1729Q402.4756 -1.25 393.75 -1.25Q385.0247 -1.25 375.9355 3.1729Q367.9211 7.0728 359.1349 14.68Q351.8577 20.9807 342.9883 30.8029Q337.6814 36.68 327.1679 49.196Q316.6836 61.6772 311.4062 67.5216Q302.6401 77.2296 295.4787 83.43Q286.9402 90.8226 279.2206 94.5791Q270.6494 98.75 262.5 98.75Q254.3505 98.75 245.7794 94.5791Q238.0599 90.8228 229.5213 83.43Q222.3605 77.2301 213.5938 67.5216Q208.3164 61.6774 197.8322 49.196Q187.3189 36.6802 182.0117 30.8029Q173.142 20.9803 165.8651 14.68Q157.0784 7.0726 149.0645 3.1729Q139.9754 -1.25 131.25 -1.25Q122.5245 -1.25 113.4355 3.1729Q105.4213 7.0728 96.6349 14.68Q89.3582 20.9802 80.4883 30.8029Q75.1833 36.6778 64.6679 49.196Q54.1819 61.6793 48.9062 67.5216Q40.1396 77.23 32.9787 83.43Q24.4402 90.8227 16.7206 94.5791Z" fill-rule="evenodd"/></svg>